<?xml version="1.0" encoding="UTF-8"?><svg id="Layer_1" xmlns="http://www.w3.org/2000/svg" viewBox="0 0 948.76 300"><defs><style>.cls-1{fill:#fff;}.cls-2{fill:#7bc244;}</style></defs><path class="cls-1" d="M462.19,175.72c0,4.54-.6,7.95-6.18,7.95-4.98,0-6.04-2.72-6.04-7.95v-27.91h-9.27v28.83c0,8.42,3.55,13.61,15.2,13.61s15.34-5.19,15.34-13.61v-28.83h-9.05v27.91Z"/><path class="cls-1" d="M499.13,170.02c0,1.06.31,4.46.31,4.46,0,0-1.29-3.39-1.8-4.43-4.68-8.65-12.09-22.24-12.09-22.24h-8.32v41.78h8.32v-21.24c0-1.33-.2-4.56-.2-4.56,0,0,1.33,3.06,1.99,4.31,4.59,8.36,11.8,21.48,11.8,21.48h8.33v-41.78h-8.33v22.21Z"/><path class="cls-1" d="M533.65,165.66l-6.92-2.79c-4.18-1.69-5.77-2.96-5.77-5.78,0-2.43,1.85-4.04,5.08-4.04s5.27,1.33,5.27,5.21c0,.86-.14,1.51-.25,2.07l8.14-.25c.28-.91.54-2.08.54-2.88,0-5.99-5.23-10.06-13-10.06-9.56,0-14.29,4.96-14.29,11.75,0,4.7,1.84,8.56,6.76,10.45l6.23,2.36c6.28,2.37,7.92,4.36,7.92,7.21,0,3.67-2.39,5.21-6.63,5.21s-5.92-1.94-5.92-4.93c0-1.29.3-2.09.6-2.81l-8.73.25c-.29.97-.59,1.84-.59,3.29,0,6.39,5.08,10.34,14.64,10.34,10.37,0,15.54-4.37,15.54-13.03,0-4.96-2.73-9.18-8.61-11.58"/><polygon class="cls-1" points="575.88 176.02 570.7 147.81 560.39 147.81 555.06 176.02 550.27 147.81 541.06 147.81 549.93 189.59 559.83 189.59 565.51 161.86 570.7 189.59 580.7 189.59 589.52 147.81 580.51 147.81 575.88 176.02"/><path class="cls-1" d="M625.82,164.42l-7.21-2.89c-4.44-1.8-6.12-3.14-6.12-6.1,0-2.54,1.99-4.21,5.32-4.21s5.58,1.35,5.58,5.48c0,.87-.16,1.54-.3,2.15l8.56-.28c.3-.94.55-2.19.55-3.01,0-6.3-5.48-10.56-13.64-10.56-10.01,0-14.99,5.19-14.99,12.35,0,4.89,1.91,8.99,7.17,10.95l6.43,2.46c6.68,2.52,8.36,4.62,8.36,7.63,0,3.86-2.54,5.5-6.91,5.5-4.64,0-6.23-2.06-6.23-5.23,0-1.37.24-2.14.56-2.97l-9.17.28c-.3,1.02-.6,1.96-.6,3.43,0,6.79,5.38,10.89,15.4,10.89,10.84,0,16.32-4.55,16.32-13.67,0-5.2-2.88-9.69-9.05-12.2"/><path class="cls-1" d="M651.37,180.4v-18.15h9.32v-5.5h-9.32v-9.04h-9.16v9.04h-5.42v5.5h5.42v18.25c0,6.66,4.33,9.48,10.37,9.48,4.58,0,8.4-1.31,9.8-1.99v-5.5c-1.73.75-4.02,1.5-6.37,1.5-3.28,0-4.63-.89-4.63-3.59"/><path class="cls-1" d="M686.09,173.8c0,6.24-2.05,9.69-5.82,9.69-4.3,0-4.64-2.41-4.64-6.69v-20.05h-9.46v23.36c0,7.84,4.18,10.15,9.8,10.15,5.28,0,8.77-2.71,10.37-6.32v5.65h9.26v-32.84h-9.51v17.05Z"/><path class="cls-1" d="M715.32,184.16c-3.88,0-6.43-2.62-6.43-10.99,0-7.67,2.44-11.05,6.29-11.05,2.29,0,3.83.97,4.67,3.13.91,2.1,1.5,5.01,1.5,7.98,0,8.24-2.25,10.93-6.02,10.93M721.64,160.71c-1.94-3.2-4.69-4.33-8.27-4.33-7.57,0-13.73,5.82-13.73,17.05,0,11.88,5.11,16.64,13.54,16.64,4.08,0,6.83-1.5,8.76-4.43v3.95h8.77v-43.95h-9.06v15.07Z"/><path class="cls-1" d="M749.98,162.03c2.93,0,4.73,1.73,5.22,5.08.26.94.26,1.81.2,2.59h-11.56c.29-5.15,2.25-7.66,6.13-7.66M755.81,178.86s0,.77-.05,1.34c-.2,2.41-1.85,3.95-5.58,3.95s-6.38-2.6-6.33-9.13h20.07c.2-1.57.3-3.56.11-5.83-.8-9.17-6.29-13.47-13.95-13.47-8.51,0-15.28,5.72-15.28,17.9s5.92,16.66,15.39,16.66c10.02,0,13.94-5.03,14.23-8.91.06-.75.06-1.32,0-1.96l-8.6-.55Z"/><path class="cls-1" d="M789.26,156.15c-5.51,0-9.05,2.24-10.9,6.23v-5.63h-9.16v32.84h9.42v-17.03c0-6.23,2.58-9.66,6.37-9.66s5.18,1.5,5.18,6.69v19.99h9.41v-24.08c0-6.24-3.99-9.36-10.32-9.36"/><path class="cls-1" d="M816.72,180.4v-18.15h9.41v-5.5h-9.41v-9.04h-9.17v9.04h-5.42v5.5h5.42v18.25c0,6.66,4.32,9.48,10.41,9.48,4.54,0,8.36-1.31,9.86-1.99v-5.5c-1.79.75-4.02,1.5-6.42,1.5-3.39,0-4.68-.89-4.68-3.59"/><polygon class="cls-1" points="850.28 145.64 840.52 145.64 840.52 189.6 866.11 189.6 866.11 181.83 850.28 181.83 850.28 145.64"/><rect class="cls-1" x="871.79" y="145.08" width="9.72" height="8.52"/><rect class="cls-1" x="871.99" y="156.75" width="9.42" height="32.85"/><path class="cls-1" d="M899.64,152.24c0-1.66.91-2.81,2.44-2.81,1.7,0,2.54.56,2.54,1.8,0,.61-.06,1.17-.16,1.67l5.79.44c.23-.64.63-1.92.63-3.53,0-2.82-3.04-5.4-9.8-5.4-6.02,0-9.46,3.44-9.46,8.49,0,1.64,0,2.5.28,3.86h-4.73v5.38h4.58v27.46h9.42v-27.46h6.08v-5.38h-6.87c-.56-1.19-.75-2.22-.75-4.51"/><path class="cls-1" d="M923.65,162.03c2.98,0,4.72,1.73,5.28,5.08.2.94.2,1.81.09,2.59h-11.49c.29-5.15,2.23-7.66,6.12-7.66M929.47,178.86s0,.77-.09,1.34c-.11,2.41-1.79,3.95-5.52,3.95s-6.38-2.6-6.32-9.13h20.06c.3-1.57.3-3.56.05-5.83-.75-9.17-6.32-13.47-13.85-13.47-8.56,0-15.34,5.72-15.34,17.9s5.88,16.66,15.4,16.66c10.06,0,14.04-5.03,14.3-8.91,0-.75,0-1.32-.11-1.96l-8.57-.55Z"/><path class="cls-2" d="M142.76,172.71c15.6-10.06,30.82-17.69,31.08-17.82l3.67-40c-1.09.55-21.73,7.94-50.93,26.22l-53.12-103.86-34.44,6.08-28.66,218.22,43.87.05s25.9-37.57,42.08-52.82c4.78-4.5,10.23-10.12,16.19-14.53l34.37,67.26h41.95l-46.05-88.79ZM70.95,180.96c-5.18,4.89-10.27,10.54-15.17,16.56l11.89-90.88,27.89,54.52c-8.87,6.31-17.42,13.02-24.61,19.8Z"/><path class="cls-2" d="M282.31,118.6l20.69-34.94c-14.89.38-50.34,1.12-75.29,26.4l-2.25-12.43s-5.65,1.76-15.05,4.66c-10.83,3.35-20.74,7.52-20.74,7.52l28.11,151.74,37.33-.05-15.26-84.32c-1.37-7.58-1.65-15.36-.27-22.93,3.98-21.82,17.44-32.63,42.72-35.64Z"/><path class="cls-2" d="M411.76,201.05l-.74,1.01c-2.33,3.21-4.59,5.99-6.9,8.49-9.05,9.8-18.76,15.11-30.56,16.72-26.3,3.57-49.09-15.6-53.04-44.63-3.84-28.21,12.61-52.96,37.45-56.34,19.12-2.61,31.88,5.31,42.83,14.26l1.03.84,20.47-29.76-.84-.72c-20-17.1-40.94-23.09-67.93-19.41-46.7,6.36-78.15,48.97-71.6,97,5.93,43.52,41.24,74.23,82.88,74.23,3.83,0,7.72-.26,11.64-.79,34.06-4.64,50.17-22.59,61.43-39.53l.64-.96-26.76-20.43Z"/></svg>