<svg xmlns="http://www.w3.org/2000/svg" viewBox="0 0 952.27 153.53"><title>Code Camp logo blue</title><path d="M509.31,51.4a29,29,0,0,0-11.77-8.12,43.46,43.46,0,0,0-15.37-2.57H451.1A3,3,0,0,0,448,43.55V124a3,3,0,0,0,3.15,2.84h31c11.75,0,20.93-3.74,27.31-11.1,6.19-7.15,9.33-18,9.33-32.15a67,67,0,0,0-2.32-18.71A35.52,35.52,0,0,0,509.31,51.4ZM491.17,95.06a14.59,14.59,0,0,1-2.09,5.7,5.64,5.64,0,0,1-3,2.23,19.82,19.82,0,0,1-5.93.75h-5.74v-40h5.74a16.81,16.81,0,0,1,5.91.88,6.11,6.11,0,0,1,3.08,2.6,17.54,17.54,0,0,1,2.06,6.31,70,70,0,0,1,.71,10.9A60.47,60.47,0,0,1,491.17,95.06Zm-135.33,8a2.87,2.87,0,0,0-3-2.68H327a30.51,30.51,0,0,1-9.59-1.31,12.38,12.38,0,0,1-5.76-3.85,18.48,18.48,0,0,1-3.49-7.43,50.4,50.4,0,0,1-1.22-12,51.6,51.6,0,0,1,1.22-12.07,18.56,18.56,0,0,1,3.49-7.49,12.38,12.38,0,0,1,5.76-3.85A30.49,30.49,0,0,1,327,51.09h25.95A3.1,3.1,0,0,0,356,49l6.36-20.95c.25-.86.35-3.59-3-3.59H319.49a58,58,0,0,0-20,3.28,40.77,40.77,0,0,0-15.45,9.89,44,44,0,0,0-9.72,16.13,66.51,66.51,0,0,0-3.35,22,66.45,66.45,0,0,0,3.35,22,43.27,43.27,0,0,0,9.73,16.06,41.29,41.29,0,0,0,15.44,9.81,58.16,58.16,0,0,0,20,3.27h39.76c1.4,0,3.29-.69,3-3.06S356.17,105.16,355.84,103.06Zm74.49-51.91a32.61,32.61,0,0,0-13-8.09,55.49,55.49,0,0,0-33.13,0,32.61,32.61,0,0,0-13,8.09A36.46,36.46,0,0,0,363,64.83a59,59,0,0,0-2.82,19.23c0,32.24,21.42,43.15,40.43,43.15a51.67,51.67,0,0,0,16.57-2.54,33.35,33.35,0,0,0,13.05-8,35.06,35.06,0,0,0,8.17-13.59,59.07,59.07,0,0,0,2.76-19,60.08,60.08,0,0,0-2.76-19.21A36,36,0,0,0,430.33,51.15ZM412,95.25a16.39,16.39,0,0,1-2.43,6.19,6.88,6.88,0,0,1-3.29,2.59,16.69,16.69,0,0,1-5.54.81,17,17,0,0,1-5.62-.82,6.87,6.87,0,0,1-3.33-2.58,16.39,16.39,0,0,1-2.43-6.19,54.43,54.43,0,0,1-.91-11A60.34,60.34,0,0,1,389.32,73a16.42,16.42,0,0,1,2.39-6.31A7.14,7.14,0,0,1,395,64a15.87,15.87,0,0,1,5.59-.86,16.65,16.65,0,0,1,5.63.87,6.72,6.72,0,0,1,3.33,2.67A17.7,17.7,0,0,1,412,73.05a56.39,56.39,0,0,1,.91,11.2A54.56,54.56,0,0,1,412,95.25Zm445.4-54.36H829.74a3.07,3.07,0,0,0-3,2.15l-12.11,43.9-.3,1c-.08-.32-.17-.64-.25-1L802,43a3.11,3.11,0,0,0-3-2.15H771.2a3,3,0,0,0-3.14,2.83v80.43A3,3,0,0,0,771.2,127h19.33a3,3,0,0,0,3.14-2.83V83.67l8.45,41.2a3.11,3.11,0,0,0,3,2.11h17.15a3.11,3.11,0,0,0,3-2.11l8.34-40.8v40.08a3,3,0,0,0,3.14,2.83h20.58a3,3,0,0,0,3.15-2.83V43.72A3,3,0,0,0,857.41,40.89Zm84.39-3.31c-6.91-5.71-17-8.6-30.15-8.6H873.26a3,3,0,0,0-3.14,2.7v92.55a3,3,0,0,0,3.14,2.7h21.8a3,3,0,0,0,3.14-2.7V103.61h13.32c13.43,0,23.7-3.18,30.53-9.45s10.22-15.77,10.22-28.39C952.27,52.81,948.75,43.32,941.8,37.58Zm-18,37.85A6.49,6.49,0,0,1,922,78.57,6.56,6.56,0,0,1,918.8,80a33.37,33.37,0,0,1-6.5.52H898.2V52.62h14.1a31.82,31.82,0,0,1,6.63.58,6.18,6.18,0,0,1,3.15,1.58,7.43,7.43,0,0,1,1.79,3.47,47.89,47.89,0,0,1,.65,8.42A46.33,46.33,0,0,1,923.82,75.43ZM736.46,43a3.12,3.12,0,0,0-3-2.08h-24.7a3.12,3.12,0,0,0-3,2.07l-24.91,80.43a2.62,2.62,0,0,0,.52,2.48,3.28,3.28,0,0,0,2.5,1.12h24a3.08,3.08,0,0,0,3.07-2.23c.33-1.37,5.69-30,9.24-44.79,3.51,14.76,8.8,43.41,9.13,44.78a3.08,3.08,0,0,0,3.07,2.24h25.62a3.25,3.25,0,0,0,2.5-1.12,2.6,2.6,0,0,0,.53-2.47ZM590.69,103.84H554.33V93.7h30.33a3,3,0,0,0,3.14-2.84V76a3,3,0,0,0-3.14-2.84H554.33V63.88h35.18A3,3,0,0,0,592.65,61V43.65a3,3,0,0,0-3.14-2.84H528.6a3,3,0,0,0-3.14,2.84v80.42a3,3,0,0,0,3.14,2.84h62.09a3,3,0,0,0,3.14-2.84V106.68A3,3,0,0,0,590.69,103.84Zm84-3.46H656.42a30.51,30.51,0,0,1-9.59-1.31,12.43,12.43,0,0,1-5.76-3.85,18.61,18.61,0,0,1-3.49-7.43,50.4,50.4,0,0,1-1.22-12,51.6,51.6,0,0,1,1.22-12.07,18.56,18.56,0,0,1,3.49-7.49,12.38,12.38,0,0,1,5.76-3.85,30.53,30.53,0,0,1,9.59-1.32h26a3.1,3.1,0,0,0,3-2.08l6.36-20.95a2.6,2.6,0,0,0-.54-2.47,3.23,3.23,0,0,0-2.49-1.12H648.94a58,58,0,0,0-20,3.28,40.77,40.77,0,0,0-15.45,9.89,44,44,0,0,0-9.72,16.13,66.51,66.51,0,0,0-3.35,22,66.45,66.45,0,0,0,3.35,22,43.27,43.27,0,0,0,9.73,16.06A41.29,41.29,0,0,0,629,123.73a58.16,58.16,0,0,0,20,3.27h18.92a3.1,3.1,0,0,0,3-2l6.84-21a2.62,2.62,0,0,0-.49-2.5A3.27,3.27,0,0,0,674.7,100.38Z" style="fill:#00b0ff"/><path d="M190.3,76.62h0L162.15,48.48l-9.38-9.38L139.39,52.48,159,72.08a6.37,6.37,0,0,1,1.88,4.54H190.3l-37.43,37.43-.05,0,0,.05h0L77.72,39.1h0L40.2,76.62H12.85a14.88,14.88,0,0,0,4.37,10.54l48.26,48.27a14.94,14.94,0,0,0,21.09,0l19.59-19.6L91.1,100.77,77.72,114.15l-12.5-12.51-25-25H69.61a6.42,6.42,0,0,1,11-4.54l39.11,39.11a.52.52,0,0,1,.11.1l.11.11,24,24a14.94,14.94,0,0,0,21.09,0l48.27-48.27a14.91,14.91,0,0,0,4.36-10.54Z" style="fill:#e6e7e8"/><path d="M69.61,76.62H40.2l25,25,12.5,12.51L91.1,100.77,71.49,81.15A6.39,6.39,0,0,1,69.61,76.62Z" style="fill:#f7f7f7"/><path d="M213.27,66.07,165,17.81a15,15,0,0,0-21.09,0L124.32,37.4l15.07,15.08L152.77,39.1h0l9.38,9.38L190.3,76.62h27.33A14.91,14.91,0,0,0,213.27,66.07Z" style="fill:#f7f7f7"/><path d="M160.87,76.62a6.42,6.42,0,0,1-11,4.53L86.57,17.81a15,15,0,0,0-21.09,0L17.22,66.07a14.88,14.88,0,0,0-4.37,10.55H40.2L77.72,39.1l75.05,75.05h0L190.3,76.62H160.87Z" style="fill:#f7f7f7"/><path d="M222.91,56.32,175,8.44a29,29,0,0,0-40.89,0L115.68,26.9,97.22,8.44a29,29,0,0,0-40.89,0L8.45,56.32a29,29,0,0,0,0,40.89l47.88,47.88a29,29,0,0,0,40.89,0l18.46-18.46,18.46,18.46a29,29,0,0,0,40.89,0l47.88-47.88a29,29,0,0,0,0-40.89Zm-11,29.93-47.88,47.88a13.46,13.46,0,0,1-19,0l-23.84-23.84-.09-.1-.1-.09L82.26,71.28a7.75,7.75,0,0,0-11,11l33.41,33.42L86.26,134.13a13.46,13.46,0,0,1-19,0L19.42,86.25a13.42,13.42,0,0,1,0-19L67.3,19.41a13.47,13.47,0,0,1,19,0L149.1,82.25a7.76,7.76,0,0,0,11-11L126.65,37.87,145.1,19.41a13.47,13.47,0,0,1,19,0l47.88,47.88a13.47,13.47,0,0,1,0,19Z" style="fill:#00b0ff"/></svg>